<?xml version="1.0" encoding="utf-8"?>
<!-- Generator: Adobe Illustrator 16.0.0, SVG Export Plug-In . SVG Version: 6.00 Build 0)  -->
<!DOCTYPE svg PUBLIC "-//W3C//DTD SVG 1.1//EN" "http://www.w3.org/Graphics/SVG/1.1/DTD/svg11.dtd">
<svg version="1.1" id="Layer_1" xmlns="http://www.w3.org/2000/svg" xmlns:xlink="http://www.w3.org/1999/xlink" x="0px" y="0px"
	 width="283.563px" height="27.234px" viewBox="0 0 283.563 27.234" enable-background="new 0 0 283.563 27.234"
	 xml:space="preserve">
<g id="Layer_x0020_1">
	<g id="_81788088">
		<polygon id="_81788328" fill="#E15524" points="42.998,0 36.383,0 36.383,5.384 42.998,5.384 		"/>
		<path id="_81788256" fill="#FF0000" d="M47.924,11.471v5.208h26.989c-0.423,2.745-1.96,4.116-4.61,4.116H42.998V7.426h-6.615
			v13.369H13.609c-4.663,0-6.994-2.373-6.994-7.119V0H0v14.744c0,1.83,0.328,3.513,0.985,5.048c0.658,1.538,1.584,2.851,2.782,3.941
			c1.197,1.091,2.629,1.941,4.296,2.551s3.51,0.915,5.529,0.915h29.405h25.897c8.257,0,12.386-3.823,12.386-11.47v-5.173H54.222
			c0.352-2.767,1.912-4.152,4.68-4.152h22.378V0H60.31C52.052,0,47.924,3.824,47.924,11.471z"/>
		<path id="_81788184" fill="#FF0000" d="M89.17,10.556V6.404h15.974c2.77,0,4.328,1.385,4.682,4.152H89.17z M116.123,11.471
			C116.123,3.824,111.996,0,103.738,0H82.766v0.001v6.402v4.152v0.635v4.538c0,7.648,4.129,11.471,12.386,11.471h20.971v-6.404
			H93.745c-2.65,0-4.187-1.372-4.609-4.116h26.987V11.471L116.123,11.471z"/>
		<polygon id="_81788112" fill="#FF0000" points="25.229,0 18.614,0 18.614,17.452 25.229,17.452 		"/>
	</g>
	<g id="_81748128">
		<path id="_81788016" fill="#383431" d="M140.115,2.968c0.033-0.116,0.05-0.215,0.05-0.281c0-0.083-0.017-0.133-0.066-0.166
			c-0.033-0.033-0.1-0.066-0.198-0.083c-0.1-0.016-0.215-0.016-0.38-0.016c-0.166,0-0.281,0-0.381,0.016
			c-0.099,0.017-0.165,0.034-0.215,0.05c-0.049,0.016-0.083,0.049-0.099,0.099c-0.017,0.033-0.033,0.082-0.051,0.132l-2.297,8.744
			h-0.017l-2.396-8.728c-0.017-0.066-0.033-0.116-0.066-0.148c-0.017-0.05-0.065-0.083-0.115-0.099
			c-0.05-0.017-0.133-0.033-0.215-0.05c-0.083-0.016-0.215-0.016-0.363-0.016c-0.149,0-0.281,0-0.381,0.016
			c-0.099,0.017-0.182,0.034-0.231,0.05c-0.066,0.016-0.099,0.049-0.116,0.099c-0.032,0.033-0.049,0.082-0.065,0.148l-2.231,8.728
			l-2.348-8.744c-0.017-0.066-0.033-0.116-0.049-0.148c-0.018-0.033-0.05-0.066-0.1-0.099c-0.05-0.017-0.133-0.034-0.231-0.034
			c-0.099-0.016-0.231-0.016-0.396-0.016c-0.166,0-0.298,0-0.413,0.016c-0.1,0.017-0.165,0.034-0.215,0.066
			c-0.05,0.049-0.066,0.099-0.066,0.165c0,0.066,0.017,0.166,0.05,0.298l2.76,9.636c0.017,0.083,0.05,0.149,0.083,0.182
			c0.05,0.049,0.1,0.083,0.182,0.116c0.066,0.017,0.165,0.033,0.281,0.049c0.133,0.017,0.281,0.017,0.446,0.017
			c0.183,0,0.314,0,0.43-0.017c0.116-0.017,0.198-0.033,0.265-0.049c0.066-0.033,0.132-0.066,0.165-0.116
			c0.033-0.033,0.066-0.099,0.083-0.182l2.017-7.885h0.017l2.182,7.885c0.033,0.083,0.05,0.149,0.1,0.182
			c0.032,0.049,0.082,0.083,0.165,0.116c0.065,0.017,0.165,0.033,0.28,0.049c0.116,0.017,0.265,0.017,0.43,0.017
			c0.166,0,0.298,0,0.414-0.017c0.099-0.017,0.197-0.033,0.264-0.049c0.083-0.033,0.148-0.066,0.183-0.116
			c0.05-0.033,0.082-0.099,0.099-0.182L140.115,2.968z"/>
		<path id="_81787944" fill="#383431" d="M147.868,12.075c-0.018-0.083-0.034-0.132-0.051-0.182
			c-0.032-0.049-0.065-0.083-0.099-0.099c-0.033-0.017-0.082-0.034-0.116-0.034h-4.148V8.025h3.504c0.05,0,0.083-0.017,0.116-0.033
			c0.05-0.017,0.066-0.049,0.099-0.083c0.017-0.049,0.034-0.099,0.05-0.181c0.017-0.066,0.017-0.149,0.017-0.249
			s0-0.181-0.017-0.264c-0.016-0.066-0.033-0.132-0.05-0.182c-0.032-0.033-0.049-0.066-0.099-0.1
			c-0.033-0.016-0.066-0.033-0.116-0.033h-3.504V3.628h4.082c0.051,0,0.083-0.016,0.116-0.033c0.05-0.017,0.066-0.049,0.1-0.099
			c0.017-0.05,0.033-0.099,0.05-0.183c0.016-0.066,0.016-0.148,0.016-0.247c0-0.116,0-0.198-0.016-0.281
			c-0.017-0.066-0.033-0.133-0.05-0.182c-0.033-0.05-0.05-0.083-0.1-0.099c-0.033-0.017-0.065-0.033-0.116-0.033h-4.958
			c-0.116,0-0.231,0.049-0.347,0.132c-0.116,0.083-0.165,0.215-0.165,0.43v9.323c0,0.215,0.049,0.347,0.165,0.43
			c0.115,0.083,0.23,0.132,0.347,0.132h5.024c0.034,0,0.083-0.017,0.116-0.033c0.033-0.016,0.066-0.05,0.099-0.099
			c0.017-0.05,0.033-0.116,0.05-0.182c0.017-0.083,0.017-0.165,0.017-0.265C147.883,12.24,147.883,12.141,147.868,12.075
			L147.868,12.075z"/>
		<path id="_81787872" fill="#383431" d="M156.856,8.951c-0.099-0.297-0.248-0.562-0.43-0.777c-0.198-0.231-0.413-0.413-0.661-0.545
			c-0.248-0.149-0.512-0.249-0.793-0.298c0.231-0.099,0.43-0.215,0.595-0.364c0.182-0.165,0.331-0.331,0.446-0.512
			c0.116-0.198,0.198-0.413,0.265-0.628c0.05-0.231,0.082-0.463,0.082-0.711c0-0.413-0.065-0.793-0.198-1.124
			c-0.132-0.331-0.347-0.595-0.611-0.827c-0.265-0.231-0.595-0.397-0.991-0.513c-0.397-0.115-0.91-0.181-1.538-0.181h-2.38
			c-0.115,0-0.231,0.049-0.348,0.132c-0.114,0.083-0.164,0.215-0.164,0.43v9.323c0,0.215,0.05,0.347,0.164,0.43
			c0.116,0.083,0.232,0.132,0.348,0.132h2.744c0.38,0,0.728-0.033,1.041-0.083c0.298-0.066,0.596-0.148,0.859-0.264
			c0.265-0.099,0.496-0.248,0.711-0.413c0.215-0.165,0.396-0.363,0.546-0.579c0.148-0.215,0.264-0.462,0.347-0.744
			s0.132-0.578,0.132-0.909C157.021,9.563,156.972,9.249,156.856,8.951L156.856,8.951L156.856,8.951z M154.84,5.909
			c-0.066,0.215-0.183,0.397-0.314,0.546c-0.148,0.165-0.331,0.297-0.562,0.38c-0.215,0.099-0.496,0.148-0.86,0.148h-1.587V3.595
			h1.438c0.397,0,0.711,0.033,0.96,0.116c0.247,0.066,0.445,0.182,0.595,0.331c0.148,0.132,0.248,0.314,0.33,0.512
			c0.066,0.215,0.1,0.43,0.1,0.695C154.939,5.479,154.906,5.694,154.84,5.909L154.84,5.909L154.84,5.909z M155.418,10.769
			c-0.1,0.232-0.248,0.414-0.43,0.563s-0.38,0.264-0.629,0.331c-0.23,0.083-0.512,0.116-0.825,0.116h-2.018V8.091h1.67
			c0.43,0,0.793,0.05,1.074,0.133c0.298,0.082,0.528,0.198,0.728,0.363c0.182,0.166,0.33,0.363,0.43,0.595
			c0.099,0.231,0.148,0.512,0.148,0.826C155.567,10.307,155.517,10.554,155.418,10.769L155.418,10.769z"/>
		<path id="_81787800" fill="#383431" d="M162.46,11.017c0.082,0.264,0.182,0.512,0.33,0.727c0.132,0.215,0.314,0.397,0.513,0.562
			c0.215,0.166,0.446,0.314,0.693,0.413c0.265,0.116,0.546,0.199,0.844,0.265c0.313,0.05,0.628,0.083,0.976,0.083
			c0.363,0,0.693-0.033,0.991-0.099c0.314-0.05,0.611-0.149,0.893-0.249c0.281-0.115,0.546-0.248,0.81-0.396
			c0.248-0.165,0.479-0.331,0.711-0.513c0.298,0.249,0.562,0.447,0.793,0.612c0.232,0.149,0.431,0.281,0.612,0.38
			c0.165,0.083,0.314,0.148,0.446,0.198c0.132,0.033,0.248,0.049,0.363,0.049c0.133,0,0.248-0.016,0.331-0.033
			c0.082-0.017,0.148-0.049,0.182-0.066c0.033-0.033,0.05-0.066,0.066-0.099c0.017-0.05,0.017-0.116,0.032-0.198
			c0-0.066,0-0.182,0-0.315c0-0.131,0-0.231-0.016-0.297c-0.017-0.066-0.05-0.116-0.066-0.133c-0.033-0.016-0.083-0.033-0.133-0.016
			c-0.032,0-0.099,0-0.148,0s-0.115-0.017-0.198-0.049c-0.083-0.034-0.198-0.083-0.313-0.166c-0.133-0.083-0.281-0.182-0.464-0.314
			c-0.181-0.132-0.396-0.28-0.628-0.479c0.149-0.215,0.298-0.446,0.43-0.694c0.132-0.265,0.248-0.529,0.331-0.793
			c0.1-0.281,0.165-0.563,0.215-0.859c0.05-0.298,0.065-0.579,0.065-0.893l0.001-0.198c0-0.066-0.001-0.132-0.033-0.165
			c-0.017-0.033-0.066-0.066-0.116-0.083c-0.05-0.016-0.116-0.033-0.198-0.049c-0.082,0-0.182,0-0.313,0
			c-0.133,0-0.231,0-0.314,0.017c-0.083,0.017-0.149,0.033-0.198,0.05c-0.033,0.033-0.066,0.049-0.083,0.099
			c-0.033,0.033-0.033,0.066-0.033,0.132v0.281c0,0.231-0.016,0.446-0.05,0.661c-0.032,0.215-0.082,0.431-0.148,0.628
			c-0.066,0.215-0.133,0.413-0.231,0.595c-0.082,0.181-0.182,0.347-0.281,0.496c-0.23-0.215-0.479-0.447-0.727-0.678
			c-0.248-0.231-0.479-0.479-0.711-0.711c-0.231-0.248-0.463-0.479-0.678-0.727c-0.215-0.232-0.413-0.463-0.595-0.694
			c0.496-0.265,0.925-0.53,1.272-0.761c0.363-0.248,0.645-0.496,0.876-0.744c0.215-0.248,0.38-0.496,0.496-0.761
			c0.099-0.264,0.148-0.562,0.148-0.875c0-0.331-0.066-0.628-0.182-0.893c-0.115-0.264-0.281-0.496-0.513-0.677
			c-0.231-0.199-0.513-0.347-0.859-0.446s-0.76-0.149-1.239-0.149c-0.563,0-1.025,0.066-1.422,0.198
			c-0.396,0.148-0.711,0.331-0.958,0.563c-0.265,0.231-0.447,0.512-0.546,0.81c-0.116,0.297-0.182,0.628-0.182,0.959
			c0,0.182,0.032,0.38,0.065,0.562c0.05,0.181,0.116,0.38,0.215,0.579c0.1,0.214,0.232,0.429,0.381,0.661
			c0.148,0.248,0.347,0.512,0.562,0.793c-0.396,0.231-0.727,0.479-1.008,0.711c-0.281,0.231-0.513,0.479-0.678,0.727
			s-0.298,0.512-0.38,0.777c-0.083,0.265-0.116,0.546-0.116,0.843C162.344,10.472,162.377,10.753,162.46,11.017L162.46,11.017
			L162.46,11.017z M164.807,3.909c0.066-0.165,0.148-0.297,0.281-0.43c0.132-0.116,0.28-0.215,0.479-0.281
			c0.199-0.083,0.447-0.115,0.729-0.115c0.264-0.001,0.495,0.033,0.677,0.099c0.183,0.065,0.348,0.148,0.463,0.264
			c0.132,0.099,0.215,0.232,0.281,0.38c0.049,0.132,0.082,0.281,0.082,0.446c0,0.198-0.033,0.38-0.115,0.545
			c-0.066,0.182-0.182,0.348-0.348,0.529c-0.165,0.166-0.38,0.347-0.645,0.529c-0.264,0.182-0.595,0.397-0.991,0.612
			c-0.165-0.231-0.298-0.446-0.43-0.628c-0.115-0.198-0.215-0.364-0.298-0.529c-0.082-0.165-0.148-0.331-0.198-0.479
			c-0.032-0.148-0.049-0.297-0.049-0.446C164.725,4.24,164.757,4.075,164.807,3.909L164.807,3.909L164.807,3.909z M163.865,9.496
			c0.033-0.182,0.115-0.347,0.231-0.512c0.115-0.182,0.248-0.347,0.43-0.512s0.413-0.348,0.678-0.513
			c0.198,0.249,0.413,0.496,0.661,0.76c0.231,0.265,0.479,0.53,0.744,0.794s0.529,0.512,0.81,0.776
			c0.265,0.264,0.546,0.513,0.827,0.76c-0.149,0.116-0.298,0.249-0.48,0.348c-0.164,0.116-0.347,0.215-0.545,0.297
			c-0.182,0.066-0.38,0.133-0.595,0.182c-0.215,0.05-0.43,0.066-0.646,0.066c-0.363,0-0.677-0.05-0.958-0.148
			c-0.265-0.083-0.496-0.216-0.678-0.397c-0.182-0.166-0.331-0.364-0.413-0.595c-0.1-0.232-0.149-0.479-0.149-0.76
			C163.782,9.844,163.816,9.662,163.865,9.496L163.865,9.496L163.865,9.496z"/>
		<path id="_81787728" fill="#383431" d="M179.255,2.687c0-0.05-0.017-0.083-0.032-0.116c-0.017-0.033-0.066-0.066-0.116-0.083
			c-0.049-0.017-0.115-0.033-0.215-0.05c-0.082-0.016-0.198-0.016-0.33-0.016c-0.116,0-0.232,0-0.314,0.016
			c-0.099,0.017-0.165,0.034-0.215,0.05c-0.066,0.016-0.099,0.049-0.133,0.083c-0.017,0.033-0.032,0.066-0.032,0.116v10.017
			c0,0.05,0.016,0.083,0.032,0.116s0.066,0.066,0.116,0.083s0.115,0.033,0.215,0.049c0.099,0.017,0.198,0.017,0.331,0.017
			c0.132,0,0.247,0,0.33-0.017c0.1-0.017,0.165-0.033,0.215-0.049s0.1-0.049,0.116-0.083s0.032-0.066,0.032-0.116V2.687z"/>
		<path id="_81787656" fill="#383431" d="M189.933,2.719c0-0.05-0.017-0.083-0.033-0.116c-0.016-0.033-0.065-0.05-0.115-0.083
			c-0.049-0.017-0.115-0.033-0.215-0.049c-0.083-0.017-0.198-0.017-0.314-0.017c-0.148,0-0.264,0-0.347,0.017
			c-0.083,0.016-0.165,0.033-0.215,0.049c-0.05,0.033-0.1,0.05-0.115,0.083c-0.017,0.033-0.034,0.066-0.034,0.116l0.001,5.653
			c0,0.43-0.001,0.876-0.001,1.322c0.001,0.463,0.018,0.91,0.018,1.339c-0.132-0.265-0.248-0.512-0.381-0.76
			c-0.132-0.248-0.247-0.496-0.38-0.76c-0.132-0.264-0.265-0.529-0.413-0.794c-0.133-0.264-0.281-0.529-0.43-0.81l-2.463-4.595
			c-0.083-0.166-0.166-0.297-0.248-0.413S184.083,2.703,184,2.637c-0.099-0.049-0.182-0.099-0.297-0.132
			c-0.116-0.017-0.248-0.033-0.397-0.033h-0.694c-0.132,0-0.281,0.049-0.396,0.132c-0.115,0.1-0.182,0.249-0.182,0.463v9.636
			c0,0.05,0.016,0.083,0.033,0.116c0.017,0.033,0.065,0.066,0.115,0.083s0.116,0.033,0.198,0.049c0.1,0.017,0.215,0.017,0.348,0.017
			s0.247,0,0.33-0.017c0.083-0.017,0.166-0.033,0.216-0.049c0.049-0.017,0.099-0.049,0.115-0.083s0.033-0.066,0.033-0.116V6.405
			c0-0.396,0-0.793,0-1.207c-0.017-0.396-0.018-0.793-0.033-1.19h0.017c0.148,0.331,0.298,0.645,0.479,0.992
			c0.165,0.331,0.33,0.644,0.495,0.958l3.191,5.95c0.115,0.199,0.214,0.38,0.313,0.513c0.099,0.131,0.198,0.231,0.297,0.313
			c0.1,0.066,0.198,0.133,0.298,0.149c0.115,0.033,0.248,0.049,0.38,0.049h0.463c0.083,0,0.148-0.016,0.215-0.033
			c0.083-0.017,0.148-0.049,0.198-0.099c0.066-0.049,0.116-0.116,0.149-0.198c0.032-0.066,0.049-0.165,0.049-0.265V2.719
			L189.933,2.719z"/>
		<path id="_81787584" fill="#383431" d="M198.179,2.802c-0.017-0.083-0.033-0.149-0.05-0.199c-0.033-0.05-0.066-0.083-0.1-0.099
			c-0.032-0.017-0.066-0.033-0.115-0.033h-4.694c-0.116,0-0.231,0.049-0.348,0.132c-0.115,0.083-0.165,0.215-0.165,0.43l0.001,9.67
			c0,0.05,0.016,0.083,0.032,0.116s0.066,0.066,0.116,0.083c0.049,0.017,0.115,0.033,0.215,0.049
			c0.099,0.017,0.198,0.017,0.33,0.017s0.248,0,0.347-0.017c0.083-0.017,0.149-0.033,0.198-0.049c0.051-0.017,0.1-0.049,0.116-0.083
			s0.033-0.066,0.033-0.116V8.356h3.62c0.032,0,0.066-0.017,0.099-0.033c0.034-0.034,0.066-0.066,0.1-0.116
			c0.033-0.034,0.049-0.099,0.049-0.166c0.017-0.083,0.017-0.166,0.017-0.265c0-0.116,0-0.215-0.017-0.281
			c0-0.083-0.016-0.133-0.049-0.182c-0.033-0.033-0.066-0.066-0.1-0.083c-0.032-0.017-0.066-0.034-0.099-0.034h-3.62V3.645h3.818
			c0.049,0,0.083-0.017,0.115-0.033c0.034-0.017,0.066-0.05,0.1-0.099c0.017-0.05,0.033-0.1,0.049-0.182
			c0.018-0.083,0.018-0.166,0.018-0.264C198.196,2.967,198.196,2.869,198.179,2.802L198.179,2.802L198.179,2.802z"/>
		<path id="_81787512" fill="#383431" d="M208.614,5.331c-0.182-0.661-0.463-1.207-0.843-1.652
			c-0.381-0.447-0.859-0.777-1.422-1.009c-0.578-0.231-1.239-0.347-2.017-0.347c-0.793,0-1.487,0.132-2.083,0.38
			c-0.61,0.265-1.106,0.628-1.504,1.09c-0.396,0.48-0.694,1.042-0.893,1.72c-0.198,0.661-0.297,1.421-0.297,2.231
			c0,0.859,0.099,1.637,0.28,2.298c0.183,0.661,0.463,1.207,0.827,1.652c0.38,0.447,0.843,0.794,1.421,1.025
			c0.579,0.231,1.257,0.348,2.033,0.348c0.811,0,1.504-0.133,2.1-0.38c0.595-0.264,1.091-0.628,1.487-1.108
			c0.396-0.462,0.694-1.041,0.893-1.719c0.199-0.677,0.298-1.438,0.298-2.281C208.895,6.736,208.795,5.976,208.614,5.331
			L208.614,5.331L208.614,5.331z M207.258,9.281c-0.099,0.496-0.281,0.942-0.528,1.323c-0.265,0.379-0.596,0.694-1.009,0.925
			c-0.413,0.215-0.926,0.331-1.521,0.331c-0.611,0-1.124-0.099-1.537-0.314c-0.396-0.198-0.728-0.496-0.976-0.859
			c-0.231-0.38-0.413-0.827-0.513-1.339c-0.099-0.513-0.148-1.074-0.148-1.686c0-0.562,0.05-1.091,0.165-1.587
			c0.116-0.512,0.298-0.942,0.546-1.322c0.265-0.38,0.595-0.678,0.992-0.91c0.413-0.215,0.925-0.33,1.52-0.33
			c0.596,0,1.108,0.099,1.521,0.314c0.396,0.215,0.728,0.496,0.975,0.876c0.249,0.363,0.414,0.81,0.513,1.322
			c0.116,0.512,0.166,1.058,0.166,1.653C207.424,8.24,207.375,8.769,207.258,9.281L207.258,9.281L207.258,9.281z"/>
		<path id="_81787440" fill="#383431" d="M218.037,12.521c-0.033-0.066-0.083-0.215-0.149-0.397l-0.942-2.313
			c-0.099-0.265-0.215-0.496-0.313-0.711c-0.116-0.198-0.231-0.396-0.348-0.545c-0.116-0.166-0.247-0.314-0.396-0.43
			c-0.132-0.116-0.298-0.198-0.463-0.28c0.297-0.1,0.578-0.231,0.827-0.397c0.247-0.148,0.462-0.331,0.645-0.545
			c0.181-0.215,0.313-0.462,0.396-0.744c0.101-0.264,0.149-0.579,0.149-0.942c0-0.347-0.05-0.677-0.165-0.975
			c-0.099-0.297-0.248-0.562-0.463-0.793s-0.479-0.43-0.776-0.578c-0.315-0.149-0.679-0.265-1.075-0.331
			c-0.132-0.017-0.297-0.033-0.479-0.049c-0.165-0.017-0.38-0.017-0.645-0.017h-2.23c-0.116,0-0.232,0.049-0.348,0.132
			c-0.116,0.083-0.166,0.215-0.166,0.43v9.67c0,0.05,0.018,0.083,0.033,0.116c0.017,0.033,0.066,0.066,0.116,0.083
			c0.049,0.017,0.115,0.033,0.215,0.049c0.083,0.017,0.198,0.017,0.33,0.017c0.133,0,0.248,0,0.331-0.017
			c0.1-0.017,0.165-0.033,0.215-0.049s0.082-0.049,0.115-0.083c0.018-0.033,0.033-0.066,0.033-0.116V8.257h0.927
			c0.313,0,0.594,0.049,0.826,0.148c0.215,0.083,0.413,0.215,0.578,0.397c0.165,0.166,0.313,0.363,0.43,0.595
			c0.132,0.231,0.248,0.496,0.363,0.776l0.959,2.463c0.017,0.066,0.05,0.116,0.066,0.165c0.032,0.033,0.082,0.066,0.132,0.099
			c0.05,0.017,0.115,0.033,0.215,0.049c0.083,0.017,0.198,0.017,0.348,0.017c0.148,0,0.281,0,0.38-0.017
			c0.099-0.017,0.165-0.033,0.23-0.049c0.051-0.017,0.083-0.049,0.101-0.083c0.016-0.033,0.032-0.066,0.032-0.116
			C218.069,12.669,218.052,12.604,218.037,12.521L218.037,12.521L218.037,12.521z M215.837,6.075
			c-0.082,0.215-0.215,0.397-0.38,0.545c-0.182,0.166-0.396,0.298-0.678,0.38c-0.265,0.083-0.579,0.132-0.942,0.132h-1.355V3.612
			h1.174c0.265,0,0.496,0,0.661,0.016c0.165,0.017,0.33,0.05,0.463,0.083c0.43,0.132,0.727,0.331,0.909,0.612
			c0.182,0.28,0.281,0.628,0.281,1.041C215.97,5.612,215.92,5.844,215.837,6.075L215.837,6.075L215.837,6.075z"/>
		<path id="_81787368" fill="#383431" d="M231.424,3.099c0-0.116-0.017-0.215-0.05-0.281c-0.032-0.083-0.082-0.149-0.133-0.198
			c-0.049-0.049-0.115-0.083-0.181-0.116c-0.083-0.017-0.149-0.033-0.232-0.033h-0.892c-0.149,0-0.265,0.017-0.364,0.049
			c-0.099,0.017-0.198,0.066-0.28,0.132c-0.083,0.083-0.165,0.166-0.231,0.281c-0.083,0.116-0.148,0.249-0.199,0.414l-3.107,7.537
			h-0.032l-2.992-7.57c-0.05-0.149-0.115-0.265-0.182-0.38c-0.066-0.099-0.149-0.198-0.248-0.265
			c-0.099-0.066-0.215-0.116-0.331-0.148c-0.132-0.033-0.298-0.049-0.463-0.049h-0.859c-0.148,0-0.28,0.049-0.396,0.148
			c-0.115,0.099-0.182,0.249-0.182,0.479v9.604c0,0.05,0.017,0.083,0.033,0.116s0.049,0.066,0.1,0.083
			c0.049,0.017,0.132,0.033,0.215,0.049c0.082,0.017,0.198,0.017,0.33,0.017c0.148,0,0.265,0,0.347-0.017
			c0.083-0.017,0.165-0.033,0.215-0.049c0.051-0.017,0.1-0.049,0.116-0.083s0.032-0.066,0.032-0.116V3.612l3.538,9.141
			c0,0.033,0.017,0.066,0.05,0.082c0.033,0.034,0.082,0.05,0.132,0.066s0.115,0.033,0.198,0.049
			c0.083,0.017,0.182,0.017,0.298,0.017c0.1,0,0.198,0,0.265-0.017c0.082,0,0.148-0.017,0.215-0.033
			c0.05-0.017,0.099-0.049,0.115-0.066c0.033-0.033,0.066-0.066,0.083-0.099l3.669-9.141h0.017v9.091
			c0,0.05,0.017,0.083,0.033,0.116s0.066,0.066,0.115,0.083c0.05,0.017,0.116,0.033,0.216,0.049c0.083,0.017,0.197,0.017,0.33,0.017
			s0.248,0,0.331-0.017c0.082-0.017,0.165-0.033,0.215-0.049s0.099-0.049,0.115-0.083c0.018-0.033,0.033-0.066,0.033-0.116V3.099
			L231.424,3.099z"/>
		<path id="_81787296" fill="#383431" d="M238.517,2.719c-0.018-0.066-0.05-0.116-0.083-0.148c-0.032-0.033-0.1-0.066-0.165-0.099
			c-0.066-0.017-0.165-0.034-0.281-0.034c-0.1-0.016-0.248-0.016-0.413-0.016s-0.298,0-0.413,0.016c-0.1,0-0.183,0.017-0.248,0.034
			c-0.066,0.033-0.116,0.066-0.149,0.099c-0.05,0.033-0.065,0.082-0.099,0.148l-3.505,9.703c-0.032,0.116-0.065,0.215-0.065,0.281
			c0,0.083,0.017,0.132,0.065,0.166c0.034,0.033,0.1,0.065,0.198,0.082c0.1,0.017,0.231,0.017,0.397,0.017
			c0.148,0,0.265,0,0.363-0.017c0.1-0.017,0.165-0.033,0.215-0.049c0.051-0.033,0.099-0.049,0.116-0.099
			c0.033-0.033,0.049-0.066,0.066-0.116l0.859-2.513h4.33l0.91,2.545c0.016,0.05,0.032,0.083,0.065,0.116
			c0.017,0.034,0.066,0.066,0.116,0.083c0.049,0.016,0.115,0.033,0.215,0.033c0.099,0.017,0.231,0.017,0.412,0.017
			c0.166,0,0.298,0,0.397-0.017c0.099-0.017,0.165-0.033,0.215-0.066c0.032-0.05,0.049-0.099,0.049-0.166
			c0-0.082-0.017-0.181-0.065-0.297L238.517,2.719L238.517,2.719z M239.36,9.066h-3.637l1.802-5.207L239.36,9.066z"/>
		<path id="_81787224" fill="#383431" d="M249.004,2.802c-0.017-0.083-0.033-0.149-0.049-0.199c-0.034-0.05-0.051-0.083-0.1-0.099
			c-0.033-0.017-0.066-0.033-0.115-0.033h-7.24c-0.049,0-0.083,0.017-0.116,0.033c-0.049,0.017-0.065,0.049-0.1,0.099
			c-0.016,0.049-0.032,0.116-0.049,0.199c-0.017,0.065-0.017,0.166-0.017,0.265c0,0.099,0,0.181,0.017,0.264
			c0.017,0.083,0.033,0.132,0.049,0.182c0.034,0.049,0.05,0.082,0.1,0.099c0.033,0.016,0.066,0.033,0.116,0.033h2.926v9.058
			c0,0.05,0.017,0.083,0.033,0.116s0.065,0.066,0.115,0.083s0.115,0.033,0.215,0.049c0.1,0.017,0.198,0.017,0.33,0.017
			c0.133,0,0.249,0,0.331-0.017c0.099-0.017,0.165-0.033,0.215-0.049s0.1-0.049,0.115-0.083c0.018-0.033,0.034-0.066,0.034-0.116
			V3.645h2.926c0.049,0,0.082-0.017,0.115-0.033c0.049-0.017,0.065-0.05,0.1-0.099c0.016-0.05,0.032-0.1,0.049-0.182
			c0.017-0.083,0.017-0.166,0.017-0.264C249.021,2.968,249.021,2.869,249.004,2.802L249.004,2.802L249.004,2.802z"/>
		<path id="_81787152" fill="#383431" d="M251.914,2.687c0-0.05-0.018-0.083-0.034-0.116c-0.016-0.033-0.065-0.066-0.115-0.083
			c-0.049-0.017-0.115-0.033-0.215-0.05c-0.083-0.016-0.198-0.016-0.33-0.016c-0.116,0-0.231,0-0.314,0.016
			c-0.099,0.017-0.165,0.034-0.215,0.05c-0.065,0.016-0.1,0.049-0.132,0.083c-0.017,0.033-0.033,0.066-0.033,0.116v10.017
			c0,0.05,0.017,0.083,0.033,0.116s0.066,0.066,0.115,0.083c0.05,0.017,0.116,0.033,0.215,0.049c0.1,0.017,0.198,0.017,0.331,0.017
			c0.132,0,0.247,0,0.33-0.017c0.1-0.017,0.166-0.033,0.215-0.049c0.05-0.017,0.1-0.049,0.115-0.083
			c0.017-0.033,0.034-0.066,0.034-0.116V2.687L251.914,2.687z"/>
		<path id="_81787080" fill="#383431" d="M263.156,5.331c-0.182-0.661-0.463-1.207-0.843-1.652
			c-0.381-0.447-0.859-0.777-1.422-1.009c-0.578-0.231-1.239-0.347-2.017-0.347c-0.794,0-1.487,0.132-2.082,0.38
			c-0.612,0.265-1.108,0.628-1.504,1.09c-0.397,0.48-0.695,1.042-0.894,1.72c-0.198,0.661-0.297,1.421-0.297,2.231
			c0,0.859,0.099,1.637,0.28,2.298s0.463,1.207,0.826,1.652c0.381,0.447,0.843,0.794,1.422,1.025
			c0.578,0.231,1.257,0.348,2.033,0.348c0.81,0,1.504-0.133,2.099-0.38c0.596-0.264,1.092-0.628,1.488-1.108
			c0.396-0.462,0.694-1.041,0.892-1.719c0.199-0.677,0.298-1.438,0.298-2.281C263.436,6.736,263.337,5.976,263.156,5.331
			L263.156,5.331L263.156,5.331z M261.8,9.281c-0.1,0.496-0.281,0.942-0.529,1.323c-0.264,0.379-0.595,0.694-1.008,0.925
			c-0.414,0.215-0.926,0.331-1.521,0.331c-0.612,0-1.125-0.099-1.538-0.314c-0.396-0.198-0.727-0.496-0.975-0.859
			c-0.231-0.38-0.413-0.827-0.512-1.339c-0.1-0.513-0.15-1.074-0.15-1.686c0.001-0.562,0.05-1.091,0.166-1.587
			c0.115-0.512,0.298-0.942,0.546-1.322c0.265-0.38,0.595-0.678,0.991-0.91c0.413-0.215,0.926-0.33,1.521-0.33
			c0.596,0,1.107,0.099,1.521,0.314c0.396,0.215,0.727,0.496,0.975,0.876c0.248,0.363,0.413,0.81,0.513,1.322
			c0.115,0.512,0.165,1.058,0.165,1.653C261.965,8.24,261.916,8.769,261.8,9.281L261.8,9.281L261.8,9.281z"/>
		<path id="_81787008" fill="#383431" d="M273.536,2.719c0-0.05-0.017-0.083-0.032-0.116c-0.018-0.033-0.066-0.05-0.116-0.083
			c-0.05-0.017-0.116-0.033-0.215-0.049c-0.082-0.017-0.198-0.017-0.314-0.017c-0.149,0-0.264,0-0.347,0.017
			c-0.083,0.016-0.166,0.033-0.215,0.049c-0.05,0.033-0.1,0.05-0.116,0.083c-0.016,0.033-0.033,0.066-0.033,0.116v5.653
			c0,0.43,0,0.876,0,1.322c0,0.463,0.017,0.91,0.017,1.339c-0.132-0.265-0.248-0.512-0.38-0.76s-0.248-0.496-0.38-0.76
			c-0.133-0.264-0.265-0.529-0.413-0.794c-0.133-0.264-0.281-0.529-0.43-0.81l-2.463-4.595c-0.083-0.166-0.166-0.297-0.249-0.413
			c-0.082-0.116-0.165-0.198-0.247-0.265c-0.1-0.049-0.183-0.099-0.298-0.132c-0.115-0.017-0.248-0.033-0.396-0.033h-0.694
			c-0.132,0-0.28,0.049-0.396,0.132c-0.116,0.1-0.182,0.249-0.182,0.463v9.636c0,0.05,0.017,0.083,0.033,0.116
			s0.065,0.066,0.115,0.083s0.115,0.033,0.198,0.049c0.1,0.017,0.215,0.017,0.347,0.017c0.133,0,0.248,0,0.331-0.017
			c0.083-0.017,0.165-0.033,0.215-0.049s0.099-0.049,0.115-0.083s0.034-0.066,0.034-0.116V6.405c0-0.396,0-0.793,0-1.207
			c-0.018-0.396-0.018-0.793-0.034-1.19h0.017c0.149,0.331,0.298,0.645,0.479,0.992c0.166,0.331,0.331,0.644,0.496,0.958l3.19,5.95
			c0.115,0.199,0.215,0.38,0.313,0.513c0.1,0.131,0.198,0.231,0.298,0.313c0.1,0.066,0.198,0.133,0.298,0.149
			c0.115,0.033,0.247,0.049,0.38,0.049h0.463c0.083,0,0.149-0.016,0.215-0.033c0.083-0.017,0.149-0.049,0.198-0.099
			c0.066-0.049,0.116-0.116,0.148-0.198c0.033-0.066,0.05-0.165,0.05-0.265V2.719L273.536,2.719z"/>
		<path id="_81786936" fill="#383431" d="M132.773,23.069c-0.148-0.298-0.33-0.563-0.545-0.777
			c-0.231-0.231-0.479-0.429-0.761-0.595c-0.297-0.148-0.578-0.314-0.876-0.447c-0.298-0.131-0.595-0.264-0.876-0.396
			c-0.281-0.149-0.546-0.298-0.761-0.446c-0.231-0.166-0.412-0.348-0.545-0.563c-0.132-0.215-0.198-0.462-0.198-0.744
			c0-0.198,0.033-0.397,0.099-0.562c0.083-0.182,0.182-0.331,0.314-0.463c0.148-0.132,0.33-0.231,0.545-0.313
			c0.215-0.083,0.463-0.116,0.761-0.116s0.578,0.033,0.843,0.116c0.248,0.082,0.463,0.165,0.645,0.264
			c0.183,0.083,0.331,0.182,0.464,0.248c0.132,0.083,0.215,0.116,0.28,0.116c0.033,0,0.066-0.017,0.1-0.033
			c0.032-0.033,0.05-0.066,0.066-0.116c0.016-0.049,0.032-0.116,0.032-0.198c0.017-0.066,0.017-0.149,0.017-0.249s0-0.182,0-0.248
			c-0.017-0.066-0.017-0.133-0.033-0.166c-0.016-0.049-0.016-0.099-0.032-0.116c-0.018-0.033-0.05-0.083-0.1-0.132
			c-0.066-0.05-0.165-0.116-0.33-0.198c-0.149-0.083-0.348-0.149-0.546-0.232c-0.215-0.065-0.43-0.116-0.661-0.148
			c-0.231-0.049-0.463-0.066-0.694-0.066c-0.463,0-0.876,0.066-1.272,0.182c-0.381,0.116-0.728,0.297-1.009,0.529
			s-0.496,0.513-0.661,0.859c-0.148,0.348-0.231,0.728-0.231,1.157s0.066,0.793,0.198,1.107c0.148,0.298,0.331,0.562,0.546,0.794
			c0.215,0.215,0.463,0.413,0.743,0.578c0.281,0.166,0.579,0.331,0.876,0.462c0.281,0.132,0.579,0.265,0.859,0.397
			c0.281,0.133,0.529,0.281,0.761,0.446c0.215,0.148,0.397,0.331,0.529,0.546s0.198,0.462,0.198,0.76
			c0,0.264-0.05,0.512-0.149,0.727c-0.099,0.215-0.23,0.397-0.412,0.546c-0.183,0.148-0.397,0.264-0.646,0.347
			c-0.247,0.083-0.528,0.116-0.826,0.116c-0.396,0-0.744-0.049-1.058-0.149c-0.298-0.083-0.563-0.182-0.777-0.297
			c-0.215-0.099-0.396-0.198-0.528-0.298c-0.133-0.082-0.248-0.132-0.314-0.132c-0.049,0-0.083,0.017-0.115,0.033
			c-0.033,0.017-0.066,0.049-0.083,0.099c-0.017,0.049-0.033,0.116-0.05,0.182c-0.016,0.083-0.016,0.182-0.016,0.298
			c0,0.165,0.016,0.297,0.049,0.396c0.017,0.1,0.065,0.182,0.132,0.249c0.066,0.066,0.166,0.148,0.331,0.231
			c0.165,0.1,0.363,0.182,0.595,0.265c0.231,0.099,0.496,0.165,0.794,0.231c0.297,0.049,0.628,0.083,0.975,0.083
			c0.496,0,0.976-0.066,1.405-0.198c0.431-0.132,0.81-0.331,1.124-0.611c0.331-0.265,0.579-0.579,0.761-0.959
			c0.182-0.38,0.265-0.826,0.265-1.305C132.972,23.747,132.906,23.383,132.773,23.069L132.773,23.069L132.773,23.069z"/>
		<path id="_81786864" fill="#383431" d="M141.067,17.135c0.05-0.116,0.1-0.215,0.1-0.281c0.017-0.083,0-0.132-0.033-0.165
			c-0.05-0.034-0.133-0.066-0.231-0.083c-0.116-0.017-0.265-0.017-0.463-0.017c-0.133,0-0.248,0-0.348,0.017
			c-0.082,0.017-0.165,0.034-0.215,0.05c-0.049,0.017-0.082,0.049-0.115,0.083c-0.033,0.033-0.05,0.082-0.066,0.132l-1.454,3.025
			c-0.132,0.298-0.265,0.595-0.397,0.893c-0.132,0.313-0.265,0.611-0.38,0.925h-0.017c-0.148-0.331-0.281-0.645-0.413-0.942
			c-0.132-0.314-0.265-0.612-0.396-0.909l-1.454-2.992c-0.017-0.066-0.051-0.099-0.083-0.132c-0.033-0.049-0.066-0.066-0.132-0.083
			c-0.066-0.016-0.133-0.033-0.231-0.05c-0.1-0.017-0.232-0.017-0.397-0.017c-0.182,0-0.313,0-0.43,0.017
			c-0.099,0.017-0.165,0.034-0.215,0.066c-0.033,0.05-0.05,0.099-0.033,0.166s0.05,0.165,0.1,0.297l2.958,5.884v3.851
			c0,0.05,0.017,0.083,0.034,0.116c0.016,0.033,0.065,0.066,0.114,0.083c0.051,0.016,0.133,0.033,0.215,0.05
			c0.083,0.016,0.199,0.016,0.331,0.016c0.133,0,0.248,0,0.331-0.016c0.099-0.017,0.165-0.034,0.215-0.05
			c0.049-0.017,0.099-0.05,0.115-0.083c0.017-0.033,0.033-0.066,0.033-0.116l0.001-3.851L141.067,17.135L141.067,17.135z"/>
		<path id="_81786792" fill="#383431" d="M148.125,23.069c-0.149-0.298-0.331-0.563-0.546-0.777
			c-0.231-0.231-0.479-0.429-0.76-0.595c-0.298-0.148-0.579-0.314-0.877-0.447c-0.298-0.131-0.595-0.264-0.876-0.396
			c-0.281-0.149-0.546-0.298-0.761-0.446c-0.231-0.166-0.412-0.348-0.545-0.563c-0.132-0.215-0.198-0.462-0.198-0.744
			c0-0.198,0.033-0.397,0.1-0.562c0.082-0.182,0.182-0.331,0.313-0.463c0.149-0.132,0.33-0.231,0.545-0.313
			c0.216-0.083,0.464-0.116,0.761-0.116c0.298,0,0.578,0.033,0.843,0.116c0.248,0.082,0.464,0.165,0.646,0.264
			c0.182,0.083,0.33,0.182,0.463,0.248c0.132,0.083,0.215,0.116,0.28,0.116c0.033,0,0.066-0.017,0.1-0.033
			c0.033-0.033,0.05-0.066,0.066-0.116s0.032-0.116,0.032-0.198c0.017-0.066,0.017-0.149,0.017-0.249s0-0.182,0-0.248
			c-0.017-0.066-0.017-0.133-0.033-0.166c-0.016-0.049-0.016-0.099-0.032-0.116c-0.017-0.033-0.05-0.083-0.1-0.132
			c-0.066-0.05-0.165-0.116-0.33-0.198c-0.148-0.083-0.348-0.149-0.546-0.232c-0.215-0.065-0.43-0.116-0.661-0.148
			c-0.231-0.049-0.463-0.066-0.694-0.066c-0.463,0-0.876,0.066-1.272,0.182c-0.38,0.116-0.728,0.297-1.009,0.529
			c-0.28,0.231-0.496,0.513-0.66,0.859c-0.149,0.348-0.231,0.728-0.231,1.157s0.065,0.793,0.197,1.107
			c0.149,0.298,0.331,0.562,0.546,0.794c0.215,0.215,0.463,0.413,0.744,0.578c0.28,0.166,0.578,0.331,0.876,0.462
			c0.28,0.132,0.578,0.265,0.859,0.397c0.281,0.133,0.528,0.281,0.76,0.446c0.216,0.148,0.397,0.331,0.529,0.546
			c0.133,0.215,0.199,0.462,0.199,0.76c0,0.264-0.05,0.512-0.149,0.727s-0.231,0.397-0.413,0.546s-0.397,0.264-0.645,0.347
			c-0.248,0.083-0.529,0.116-0.827,0.116c-0.396,0-0.744-0.049-1.058-0.149c-0.298-0.083-0.562-0.182-0.776-0.297
			c-0.215-0.099-0.396-0.198-0.529-0.298c-0.132-0.082-0.248-0.132-0.313-0.132c-0.05,0-0.083,0.017-0.116,0.033
			c-0.033,0.017-0.066,0.049-0.083,0.099c-0.016,0.049-0.032,0.116-0.05,0.182c-0.016,0.083-0.016,0.182-0.016,0.298
			c0,0.165,0.016,0.297,0.05,0.396c0.017,0.1,0.065,0.182,0.132,0.249c0.066,0.066,0.165,0.148,0.33,0.231
			c0.166,0.1,0.364,0.182,0.596,0.265c0.231,0.099,0.495,0.165,0.793,0.231c0.298,0.049,0.628,0.083,0.976,0.083
			c0.495,0,0.976-0.066,1.405-0.198c0.43-0.132,0.81-0.331,1.124-0.611c0.33-0.265,0.578-0.579,0.76-0.959
			c0.182-0.38,0.265-0.826,0.265-1.305C148.324,23.747,148.257,23.383,148.125,23.069L148.125,23.069L148.125,23.069z"/>
		<path id="_81786720" fill="#383431" d="M156.714,16.97c-0.017-0.083-0.033-0.149-0.05-0.198c-0.033-0.049-0.05-0.082-0.099-0.099
			c-0.033-0.017-0.066-0.033-0.116-0.033h-7.239c-0.05,0-0.083,0.016-0.116,0.033c-0.049,0.017-0.066,0.05-0.1,0.099
			c-0.016,0.049-0.032,0.116-0.05,0.198c-0.016,0.066-0.016,0.166-0.016,0.265c0,0.1,0,0.182,0.016,0.265
			c0.018,0.083,0.034,0.132,0.05,0.182c0.033,0.049,0.051,0.083,0.1,0.099c0.033,0.017,0.065,0.033,0.116,0.033h2.926v9.058
			c0,0.05,0.016,0.083,0.032,0.116c0.017,0.033,0.066,0.066,0.116,0.083c0.05,0.016,0.115,0.033,0.215,0.05
			c0.099,0.016,0.198,0.016,0.33,0.016s0.248,0,0.33-0.016c0.101-0.017,0.166-0.034,0.216-0.05c0.05-0.017,0.1-0.05,0.115-0.083
			c0.017-0.033,0.033-0.066,0.033-0.116v-9.058h2.926c0.05,0,0.083-0.017,0.116-0.033c0.049-0.016,0.065-0.05,0.099-0.099
			c0.017-0.05,0.033-0.099,0.05-0.182c0.017-0.083,0.017-0.165,0.017-0.265C156.731,17.135,156.731,17.036,156.714,16.97
			L156.714,16.97L156.714,16.97z"/>
		<path id="_81749088" fill="#383431" d="M164.042,26.243c-0.016-0.083-0.032-0.132-0.049-0.182c-0.033-0.049-0.066-0.082-0.1-0.099
			c-0.033-0.017-0.083-0.033-0.115-0.033h-4.148v-3.735h3.504c0.049,0,0.082-0.017,0.115-0.034c0.05-0.016,0.065-0.049,0.1-0.083
			c0.017-0.049,0.032-0.099,0.049-0.182c0.018-0.066,0.018-0.149,0.018-0.248c0-0.099,0-0.183-0.018-0.265
			c-0.017-0.066-0.032-0.133-0.049-0.182c-0.033-0.033-0.05-0.066-0.1-0.099c-0.033-0.017-0.066-0.033-0.115-0.033h-3.504v-3.273
			h4.082c0.05,0,0.083-0.017,0.115-0.033c0.05-0.017,0.066-0.05,0.1-0.1c0.017-0.05,0.033-0.099,0.05-0.182
			c0.017-0.066,0.017-0.148,0.017-0.248c0-0.116,0-0.199-0.017-0.281c-0.017-0.066-0.033-0.133-0.05-0.182
			c-0.033-0.049-0.05-0.083-0.1-0.099c-0.032-0.017-0.065-0.033-0.115-0.033h-4.959c-0.115,0-0.231,0.049-0.347,0.132
			c-0.116,0.083-0.166,0.215-0.166,0.43v9.323c0,0.215,0.05,0.347,0.166,0.43c0.115,0.083,0.231,0.132,0.347,0.132h5.025
			c0.032,0,0.082-0.016,0.115-0.033s0.066-0.05,0.1-0.099c0.017-0.049,0.032-0.116,0.049-0.182c0.018-0.082,0.018-0.165,0.018-0.264
			S164.059,26.309,164.042,26.243L164.042,26.243z"/>
		<path id="_81749016" fill="#383431" d="M177.668,17.268c0-0.116-0.018-0.215-0.051-0.281c-0.032-0.082-0.082-0.148-0.132-0.198
			c-0.05-0.049-0.115-0.083-0.182-0.116c-0.083-0.017-0.148-0.033-0.232-0.033h-0.892c-0.148,0-0.265,0.016-0.363,0.05
			c-0.1,0.016-0.199,0.065-0.281,0.131c-0.083,0.083-0.166,0.166-0.231,0.281c-0.083,0.116-0.149,0.248-0.198,0.413l-3.108,7.538
			h-0.032l-2.992-7.57c-0.05-0.148-0.116-0.265-0.182-0.38c-0.065-0.099-0.148-0.198-0.248-0.264
			c-0.099-0.066-0.215-0.116-0.331-0.149c-0.131-0.033-0.297-0.049-0.462-0.049h-0.859c-0.148,0-0.281,0.049-0.397,0.148
			c-0.115,0.099-0.182,0.248-0.182,0.479v9.603c0,0.05,0.017,0.083,0.033,0.116c0.017,0.033,0.05,0.066,0.1,0.083
			c0.049,0.016,0.132,0.033,0.215,0.05c0.083,0.016,0.197,0.016,0.33,0.016c0.148,0,0.265,0,0.347-0.016
			c0.083-0.017,0.165-0.034,0.215-0.05c0.05-0.017,0.101-0.05,0.116-0.083c0.017-0.033,0.033-0.066,0.033-0.116V17.78l3.537,9.141
			c0,0.033,0.017,0.066,0.05,0.083c0.033,0.033,0.083,0.05,0.132,0.066c0.05,0.016,0.116,0.033,0.198,0.05
			c0.083,0.016,0.183,0.016,0.298,0.016c0.1,0,0.198,0,0.265-0.016c0.082,0,0.148-0.017,0.215-0.034
			c0.05-0.016,0.099-0.049,0.116-0.066c0.032-0.033,0.065-0.066,0.082-0.099l3.67-9.141h0.016v9.091c0,0.05,0.018,0.083,0.033,0.116
			c0.017,0.033,0.066,0.066,0.115,0.083c0.051,0.016,0.116,0.033,0.215,0.05c0.084,0.016,0.199,0.016,0.331,0.016
			c0.133,0,0.249,0,0.331-0.016c0.083-0.017,0.165-0.034,0.215-0.05c0.05-0.017,0.099-0.05,0.115-0.083
			c0.018-0.033,0.033-0.066,0.033-0.116L177.668,17.268L177.668,17.268z"/>
		<path id="_81748944" fill="#383431" d="M185.866,23.069c-0.149-0.298-0.331-0.563-0.546-0.777
			c-0.23-0.231-0.479-0.429-0.761-0.595c-0.297-0.148-0.578-0.314-0.875-0.447c-0.298-0.131-0.596-0.264-0.877-0.396
			c-0.28-0.149-0.545-0.298-0.76-0.446c-0.231-0.166-0.413-0.348-0.546-0.563c-0.132-0.215-0.198-0.462-0.198-0.744
			c0-0.198,0.033-0.397,0.1-0.562c0.083-0.182,0.182-0.331,0.313-0.463c0.149-0.132,0.331-0.231,0.546-0.313
			c0.215-0.083,0.462-0.116,0.76-0.116c0.299,0,0.579,0.033,0.843,0.116c0.249,0.082,0.464,0.165,0.646,0.264
			c0.182,0.083,0.33,0.182,0.463,0.248c0.133,0.083,0.215,0.116,0.281,0.116c0.032,0,0.065-0.017,0.099-0.033
			c0.033-0.033,0.05-0.066,0.066-0.116s0.033-0.116,0.033-0.198c0.017-0.066,0.017-0.149,0.017-0.249s0-0.182,0-0.248
			c-0.017-0.066-0.017-0.133-0.033-0.166c-0.017-0.049-0.017-0.099-0.033-0.116c-0.017-0.033-0.05-0.083-0.099-0.132
			c-0.066-0.05-0.166-0.116-0.331-0.198c-0.148-0.083-0.348-0.149-0.546-0.232c-0.215-0.065-0.43-0.116-0.661-0.148
			c-0.23-0.049-0.462-0.066-0.694-0.066c-0.462,0-0.876,0.066-1.272,0.182c-0.38,0.116-0.728,0.297-1.008,0.529
			c-0.281,0.231-0.496,0.513-0.662,0.859c-0.148,0.348-0.23,0.728-0.23,1.157s0.065,0.793,0.198,1.107
			c0.148,0.298,0.33,0.562,0.545,0.794c0.215,0.215,0.463,0.413,0.744,0.578s0.578,0.331,0.876,0.462
			c0.281,0.132,0.578,0.265,0.859,0.397c0.281,0.133,0.528,0.281,0.761,0.446c0.215,0.148,0.396,0.331,0.528,0.546
			c0.133,0.215,0.199,0.462,0.199,0.76c0,0.264-0.051,0.512-0.149,0.727c-0.1,0.215-0.231,0.397-0.413,0.546
			s-0.397,0.264-0.645,0.347c-0.249,0.083-0.529,0.116-0.827,0.116c-0.396,0-0.743-0.049-1.058-0.149
			c-0.297-0.083-0.562-0.182-0.776-0.297c-0.215-0.099-0.397-0.198-0.529-0.298c-0.132-0.082-0.248-0.132-0.313-0.132
			c-0.05,0-0.083,0.017-0.116,0.033c-0.032,0.017-0.066,0.049-0.083,0.099c-0.016,0.049-0.032,0.116-0.049,0.182
			c-0.017,0.083-0.017,0.182-0.017,0.298c0,0.165,0.017,0.297,0.05,0.396c0.017,0.1,0.065,0.182,0.132,0.249
			c0.066,0.066,0.165,0.148,0.33,0.231c0.166,0.1,0.364,0.182,0.596,0.265c0.231,0.099,0.496,0.165,0.793,0.231
			c0.298,0.049,0.628,0.083,0.976,0.083c0.495,0,0.975-0.066,1.404-0.198c0.43-0.132,0.811-0.331,1.125-0.611
			c0.33-0.265,0.578-0.579,0.76-0.959c0.182-0.38,0.265-0.826,0.265-1.305C186.064,23.747,185.998,23.383,185.866,23.069
			L185.866,23.069L185.866,23.069z"/>
		<path id="_81748872" fill="#383431" d="M197.576,26.243c-0.016-0.083-0.033-0.132-0.05-0.182
			c-0.032-0.049-0.066-0.082-0.099-0.099c-0.033-0.017-0.083-0.033-0.116-0.033h-4.148v-3.735h3.504c0.05,0,0.083-0.017,0.116-0.034
			c0.049-0.016,0.065-0.049,0.099-0.083c0.017-0.049,0.033-0.099,0.05-0.182c0.017-0.066,0.017-0.149,0.017-0.248
			c0-0.099,0-0.183-0.017-0.265c-0.016-0.066-0.033-0.133-0.05-0.182c-0.032-0.033-0.05-0.066-0.099-0.099
			c-0.033-0.017-0.066-0.033-0.116-0.033h-3.504v-3.273h4.082c0.051,0,0.083-0.017,0.116-0.033c0.05-0.017,0.066-0.05,0.099-0.1
			c0.018-0.05,0.034-0.099,0.05-0.182c0.017-0.066,0.017-0.148,0.017-0.248c0-0.116,0-0.199-0.017-0.281
			c-0.016-0.066-0.032-0.133-0.05-0.182c-0.032-0.049-0.049-0.083-0.099-0.099c-0.033-0.017-0.066-0.033-0.116-0.033h-4.958
			c-0.116,0-0.231,0.049-0.348,0.132c-0.115,0.083-0.165,0.215-0.165,0.43v9.323c0,0.215,0.05,0.347,0.165,0.43
			c0.116,0.083,0.231,0.132,0.348,0.132h5.024c0.034,0,0.083-0.016,0.116-0.033c0.032-0.017,0.066-0.05,0.099-0.099
			c0.017-0.049,0.033-0.116,0.05-0.182c0.017-0.082,0.017-0.165,0.017-0.264S197.592,26.309,197.576,26.243L197.576,26.243
			L197.576,26.243z"/>
		<path id="_81748800" fill="#383431" d="M207.747,16.887c0-0.049-0.017-0.083-0.033-0.116s-0.066-0.049-0.116-0.082
			c-0.049-0.017-0.115-0.034-0.215-0.05c-0.082-0.017-0.198-0.017-0.313-0.017c-0.148,0-0.265,0-0.348,0.017
			c-0.082,0.016-0.165,0.033-0.215,0.05c-0.05,0.033-0.1,0.049-0.116,0.082c-0.016,0.033-0.032,0.066-0.032,0.116v5.653
			c0,0.43,0,0.876,0,1.322c0,0.463,0.017,0.909,0.017,1.339c-0.133-0.264-0.249-0.512-0.38-0.76
			c-0.133-0.248-0.249-0.496-0.381-0.76c-0.133-0.265-0.265-0.529-0.413-0.793c-0.132-0.264-0.281-0.529-0.431-0.81l-2.462-4.595
			c-0.082-0.166-0.165-0.298-0.248-0.413c-0.083-0.116-0.166-0.199-0.248-0.265c-0.099-0.049-0.182-0.099-0.298-0.132
			c-0.115-0.017-0.248-0.033-0.396-0.033h-0.694c-0.132,0-0.28,0.05-0.396,0.132c-0.116,0.099-0.182,0.248-0.182,0.463v9.636
			c0,0.05,0.017,0.083,0.033,0.116c0.017,0.033,0.065,0.066,0.115,0.083c0.05,0.016,0.115,0.033,0.198,0.05
			c0.1,0.016,0.215,0.016,0.347,0.016c0.133,0,0.249,0,0.331-0.016c0.083-0.017,0.165-0.034,0.215-0.05
			c0.05-0.017,0.1-0.05,0.116-0.083c0.017-0.033,0.033-0.066,0.033-0.116v-6.297c0-0.397,0-0.794,0-1.207
			c-0.017-0.397-0.017-0.793-0.033-1.19h0.017c0.148,0.33,0.297,0.645,0.479,0.992c0.165,0.331,0.33,0.645,0.496,0.958l3.189,5.951
			c0.116,0.198,0.215,0.38,0.314,0.512s0.197,0.231,0.298,0.314c0.099,0.066,0.198,0.132,0.297,0.148
			c0.116,0.033,0.248,0.05,0.38,0.05h0.464c0.082,0,0.148-0.017,0.215-0.033c0.082-0.017,0.148-0.05,0.198-0.099
			c0.065-0.05,0.115-0.116,0.148-0.199c0.033-0.066,0.049-0.165,0.049-0.264L207.747,16.887L207.747,16.887z"/>
		<path id="_81748728" fill="#383431" d="M218.317,17.664c-0.034-0.083-0.083-0.165-0.149-0.231
			c-0.065-0.083-0.198-0.165-0.38-0.281c-0.198-0.116-0.413-0.215-0.694-0.314c-0.265-0.083-0.578-0.166-0.926-0.249
			c-0.347-0.065-0.727-0.099-1.124-0.099c-0.777,0-1.487,0.133-2.115,0.397c-0.645,0.265-1.19,0.628-1.637,1.091
			c-0.463,0.479-0.811,1.058-1.058,1.735c-0.248,0.661-0.38,1.421-0.38,2.248c0,0.793,0.115,1.521,0.347,2.166
			c0.232,0.645,0.562,1.19,1.009,1.669c0.43,0.463,0.975,0.81,1.603,1.058c0.645,0.248,1.355,0.38,2.165,0.38
			c0.265,0,0.53-0.017,0.811-0.049c0.265-0.034,0.529-0.083,0.794-0.149c0.264-0.066,0.512-0.132,0.76-0.231
			c0.248-0.083,0.463-0.182,0.611-0.248c0.149-0.082,0.265-0.182,0.314-0.281c0.05-0.099,0.065-0.215,0.065-0.363l0.001-3.983
			c0-0.099-0.017-0.182-0.033-0.248c-0.033-0.083-0.066-0.149-0.116-0.182c-0.049-0.049-0.099-0.083-0.165-0.099
			c-0.065-0.017-0.116-0.033-0.182-0.033h-3.306c-0.05,0-0.1,0.017-0.133,0.033c-0.032,0.016-0.049,0.05-0.082,0.099
			c-0.017,0.05-0.033,0.099-0.05,0.182c-0.017,0.066-0.017,0.165-0.017,0.264c0,0.182,0.017,0.331,0.066,0.43
			c0.05,0.083,0.115,0.132,0.215,0.132h2.413v3.059c-0.281,0.148-0.595,0.264-0.926,0.347c-0.33,0.083-0.661,0.116-0.975,0.116
			c-0.546,0-1.058-0.099-1.505-0.281c-0.463-0.181-0.859-0.446-1.173-0.81c-0.331-0.347-0.596-0.777-0.777-1.306
			c-0.182-0.512-0.281-1.107-0.281-1.768c0-0.595,0.083-1.158,0.248-1.669c0.182-0.513,0.413-0.958,0.744-1.323
			c0.313-0.38,0.694-0.661,1.156-0.876c0.464-0.215,0.976-0.314,1.555-0.314c0.479,0,0.893,0.049,1.256,0.149
			c0.347,0.115,0.645,0.215,0.909,0.347c0.248,0.132,0.446,0.231,0.596,0.347c0.148,0.099,0.264,0.149,0.33,0.149
			c0.033,0,0.065-0.017,0.1-0.033c0.032-0.017,0.065-0.05,0.082-0.116c0.017-0.049,0.033-0.116,0.05-0.182
			c0.017-0.082,0.017-0.182,0.017-0.281C218.35,17.896,218.333,17.764,218.317,17.664L218.317,17.664L218.317,17.664z"/>
		<path id="_81748656" fill="#383431" d="M222.331,16.854c0-0.05-0.017-0.083-0.032-0.116c-0.017-0.034-0.066-0.066-0.116-0.083
			c-0.05-0.016-0.115-0.033-0.215-0.05c-0.083-0.017-0.198-0.017-0.33-0.017c-0.116,0-0.232,0-0.314,0.017
			c-0.099,0.017-0.165,0.034-0.215,0.05c-0.066,0.017-0.1,0.049-0.133,0.083c-0.016,0.033-0.032,0.065-0.032,0.116v10.016
			c0,0.05,0.016,0.083,0.032,0.116c0.018,0.033,0.066,0.066,0.116,0.083c0.05,0.016,0.116,0.033,0.215,0.05
			c0.099,0.016,0.198,0.016,0.331,0.016c0.132,0,0.247,0,0.33-0.016c0.1-0.017,0.165-0.034,0.215-0.05
			c0.05-0.017,0.1-0.05,0.116-0.083c0.016-0.033,0.032-0.066,0.032-0.116V16.854z"/>
		<path id="_81748584" fill="#383431" d="M233.009,16.887c0-0.049-0.018-0.083-0.034-0.116c-0.016-0.033-0.066-0.049-0.115-0.082
			c-0.05-0.017-0.116-0.034-0.215-0.05c-0.083-0.017-0.198-0.017-0.314-0.017c-0.148,0-0.265,0-0.348,0.017
			c-0.082,0.016-0.164,0.033-0.215,0.05c-0.049,0.033-0.099,0.049-0.114,0.082c-0.018,0.033-0.034,0.066-0.034,0.116v5.653
			c0,0.43,0,0.876,0,1.322c0,0.463,0.017,0.909,0.017,1.339c-0.132-0.264-0.248-0.512-0.38-0.76c-0.132-0.248-0.247-0.496-0.38-0.76
			c-0.132-0.265-0.265-0.529-0.413-0.793c-0.133-0.264-0.281-0.529-0.43-0.81l-2.463-4.595c-0.083-0.166-0.166-0.298-0.248-0.413
			c-0.083-0.116-0.165-0.199-0.248-0.265c-0.1-0.049-0.182-0.099-0.298-0.132c-0.115-0.017-0.248-0.033-0.396-0.033h-0.694
			c-0.132,0-0.281,0.05-0.396,0.132c-0.115,0.099-0.182,0.248-0.182,0.463v9.636c0,0.05,0.017,0.083,0.033,0.116
			c0.017,0.033,0.065,0.066,0.115,0.083c0.05,0.016,0.116,0.033,0.198,0.05c0.1,0.016,0.215,0.016,0.348,0.016
			c0.132,0,0.247,0,0.33-0.016c0.083-0.017,0.166-0.034,0.215-0.05c0.05-0.017,0.1-0.05,0.116-0.083
			c0.016-0.033,0.032-0.066,0.032-0.116v-6.297c0-0.397,0-0.794,0-1.207c-0.017-0.397-0.017-0.793-0.032-1.19h0.016
			c0.149,0.33,0.298,0.645,0.479,0.992c0.166,0.331,0.331,0.645,0.496,0.958l3.19,5.951c0.115,0.198,0.215,0.38,0.313,0.512
			c0.1,0.132,0.199,0.231,0.298,0.314c0.099,0.066,0.198,0.132,0.297,0.148c0.117,0.033,0.249,0.05,0.381,0.05h0.463
			c0.083,0,0.148-0.017,0.215-0.033c0.083-0.017,0.148-0.05,0.198-0.099c0.066-0.05,0.116-0.116,0.148-0.199
			c0.033-0.066,0.051-0.165,0.051-0.264V16.887L233.009,16.887z"/>
		<path id="_81748512" fill="#383431" d="M241.581,26.243c-0.017-0.083-0.033-0.132-0.05-0.182
			c-0.032-0.049-0.065-0.082-0.099-0.099c-0.033-0.017-0.083-0.033-0.116-0.033h-4.148v-3.735h3.504c0.05,0,0.083-0.017,0.116-0.034
			c0.05-0.016,0.065-0.049,0.099-0.083c0.018-0.049,0.033-0.099,0.05-0.182c0.017-0.066,0.017-0.149,0.017-0.248
			c0-0.099,0-0.183-0.017-0.265c-0.017-0.066-0.033-0.133-0.05-0.182c-0.032-0.033-0.049-0.066-0.099-0.099
			c-0.033-0.017-0.066-0.033-0.116-0.033h-3.504v-3.273h4.083c0.049,0,0.082-0.017,0.115-0.033c0.05-0.017,0.066-0.05,0.1-0.1
			c0.017-0.05,0.032-0.099,0.049-0.182c0.017-0.066,0.017-0.148,0.017-0.248c0-0.116,0-0.199-0.017-0.281
			c-0.016-0.066-0.032-0.133-0.049-0.182c-0.033-0.049-0.05-0.083-0.1-0.099c-0.032-0.017-0.066-0.033-0.115-0.033h-4.959
			c-0.116,0-0.231,0.049-0.348,0.132c-0.115,0.083-0.165,0.215-0.165,0.43v9.323c0,0.215,0.05,0.347,0.165,0.43
			c0.116,0.083,0.231,0.132,0.348,0.132h5.024c0.033,0,0.083-0.016,0.116-0.033s0.065-0.05,0.099-0.099
			c0.018-0.049,0.033-0.116,0.05-0.182c0.017-0.082,0.017-0.165,0.017-0.264S241.597,26.309,241.581,26.243L241.581,26.243
			L241.581,26.243z"/>
		<path id="_81748440" fill="#383431" d="M249.651,26.243c-0.017-0.083-0.032-0.132-0.05-0.182
			c-0.032-0.049-0.066-0.082-0.099-0.099c-0.033-0.017-0.083-0.033-0.116-0.033h-4.148v-3.735h3.504c0.05,0,0.082-0.017,0.116-0.034
			c0.05-0.016,0.065-0.049,0.099-0.083c0.018-0.049,0.033-0.099,0.05-0.182c0.017-0.066,0.017-0.149,0.017-0.248
			c0-0.099,0-0.183-0.017-0.265c-0.016-0.066-0.033-0.133-0.05-0.182c-0.032-0.033-0.049-0.066-0.099-0.099
			c-0.034-0.017-0.066-0.033-0.116-0.033h-3.504v-3.273h4.082c0.051,0,0.083-0.017,0.116-0.033c0.05-0.017,0.066-0.05,0.099-0.1
			c0.018-0.05,0.033-0.099,0.05-0.182c0.017-0.066,0.017-0.148,0.017-0.248c0-0.116,0-0.199-0.017-0.281
			c-0.016-0.066-0.032-0.133-0.05-0.182c-0.032-0.049-0.049-0.083-0.099-0.099c-0.032-0.017-0.066-0.033-0.116-0.033h-4.958
			c-0.116,0-0.231,0.049-0.348,0.132c-0.116,0.083-0.165,0.215-0.165,0.43v9.323c0,0.215,0.049,0.347,0.165,0.43
			c0.116,0.083,0.231,0.132,0.348,0.132h5.024c0.033,0,0.083-0.016,0.116-0.033c0.032-0.017,0.065-0.05,0.099-0.099
			c0.018-0.049,0.033-0.116,0.05-0.182c0.017-0.082,0.017-0.165,0.017-0.264S249.667,26.309,249.651,26.243L249.651,26.243z"/>
		<path id="_81748368" fill="#383431" d="M258.864,26.689c-0.033-0.066-0.083-0.215-0.148-0.397l-0.942-2.314
			c-0.1-0.265-0.215-0.496-0.314-0.711c-0.115-0.198-0.231-0.397-0.348-0.546c-0.114-0.165-0.247-0.313-0.396-0.43
			c-0.133-0.116-0.298-0.198-0.464-0.281c0.298-0.099,0.578-0.231,0.827-0.396c0.247-0.149,0.462-0.331,0.645-0.545
			c0.182-0.215,0.313-0.463,0.396-0.744c0.1-0.265,0.149-0.579,0.149-0.942c0-0.347-0.05-0.678-0.166-0.975
			c-0.099-0.298-0.248-0.563-0.462-0.794c-0.215-0.231-0.48-0.43-0.777-0.579c-0.314-0.148-0.679-0.264-1.074-0.331
			c-0.132-0.016-0.298-0.033-0.479-0.049c-0.165-0.016-0.38-0.016-0.645-0.016h-2.231c-0.116,0-0.231,0.05-0.348,0.132
			c-0.116,0.083-0.165,0.215-0.165,0.43l0.001,9.669c0,0.05,0.016,0.083,0.032,0.116c0.017,0.033,0.065,0.066,0.115,0.083
			c0.05,0.016,0.116,0.033,0.216,0.05c0.082,0.016,0.198,0.016,0.33,0.016s0.248,0,0.33-0.016c0.1-0.017,0.166-0.034,0.215-0.05
			c0.05-0.017,0.083-0.05,0.116-0.083c0.017-0.033,0.033-0.066,0.033-0.116v-4.446h0.926c0.313,0,0.595,0.05,0.826,0.148
			c0.215,0.083,0.413,0.215,0.578,0.396c0.166,0.165,0.314,0.364,0.43,0.595c0.133,0.232,0.248,0.496,0.364,0.777l0.958,2.463
			c0.018,0.066,0.05,0.116,0.066,0.166c0.033,0.032,0.082,0.065,0.132,0.099c0.051,0.016,0.116,0.033,0.215,0.05
			c0.083,0.016,0.199,0.016,0.348,0.016s0.281,0,0.38-0.016c0.1-0.017,0.166-0.034,0.231-0.05c0.05-0.017,0.083-0.05,0.1-0.083
			c0.017-0.033,0.032-0.066,0.032-0.116C258.896,26.838,258.88,26.771,258.864,26.689L258.864,26.689L258.864,26.689z
			 M256.666,20.243c-0.083,0.215-0.215,0.397-0.38,0.545c-0.183,0.166-0.397,0.297-0.679,0.38c-0.265,0.082-0.578,0.132-0.941,0.132
			h-1.355V17.78h1.173c0.265,0,0.496,0,0.662,0.017c0.165,0.017,0.33,0.049,0.462,0.083c0.43,0.132,0.728,0.331,0.909,0.611
			c0.183,0.281,0.281,0.629,0.281,1.042C256.797,19.779,256.748,20.011,256.666,20.243L256.666,20.243z"/>
		<path id="_81748296" fill="#383431" d="M262.283,16.854c0-0.05-0.018-0.083-0.033-0.116c-0.017-0.034-0.066-0.066-0.116-0.083
			c-0.049-0.016-0.115-0.033-0.215-0.05c-0.083-0.017-0.198-0.017-0.33-0.017c-0.116,0-0.231,0-0.314,0.017
			c-0.099,0.017-0.165,0.034-0.215,0.05c-0.065,0.017-0.1,0.049-0.132,0.083c-0.017,0.033-0.033,0.065-0.033,0.116v10.016
			c0,0.05,0.017,0.083,0.033,0.116c0.017,0.033,0.066,0.066,0.115,0.083c0.05,0.016,0.116,0.033,0.215,0.05
			c0.1,0.016,0.198,0.016,0.331,0.016s0.247,0,0.33-0.016c0.1-0.017,0.166-0.034,0.215-0.05c0.05-0.017,0.1-0.05,0.116-0.083
			c0.016-0.033,0.033-0.066,0.033-0.116V16.854z"/>
		<path id="_81748224" fill="#383431" d="M272.96,16.887c0-0.049-0.017-0.083-0.033-0.116s-0.066-0.049-0.116-0.082
			c-0.05-0.017-0.115-0.034-0.215-0.05c-0.082-0.017-0.198-0.017-0.313-0.017c-0.148,0-0.265,0-0.347,0.017
			c-0.083,0.016-0.166,0.033-0.216,0.05c-0.049,0.033-0.1,0.049-0.115,0.082c-0.017,0.033-0.033,0.066-0.033,0.116v5.653
			c0,0.43,0,0.876,0,1.322c0,0.463,0.017,0.909,0.017,1.339c-0.132-0.264-0.248-0.512-0.38-0.76
			c-0.132-0.248-0.248-0.496-0.381-0.76c-0.132-0.265-0.265-0.529-0.413-0.793c-0.132-0.264-0.281-0.529-0.43-0.81l-2.463-4.595
			c-0.082-0.166-0.165-0.298-0.247-0.413c-0.084-0.116-0.166-0.199-0.249-0.265c-0.099-0.049-0.182-0.099-0.297-0.132
			c-0.116-0.017-0.249-0.033-0.397-0.033h-0.693c-0.132,0-0.281,0.05-0.397,0.132c-0.115,0.099-0.182,0.248-0.182,0.463v9.636
			c0,0.05,0.017,0.083,0.033,0.116c0.017,0.033,0.066,0.066,0.115,0.083c0.05,0.016,0.116,0.033,0.198,0.05
			c0.101,0.016,0.215,0.016,0.348,0.016s0.248,0,0.331-0.016c0.082-0.017,0.165-0.034,0.215-0.05c0.05-0.017,0.099-0.05,0.115-0.083
			c0.017-0.033,0.033-0.066,0.033-0.116v-6.297c0-0.397,0-0.794,0-1.207c-0.017-0.397-0.017-0.793-0.033-1.19h0.017
			c0.149,0.33,0.298,0.645,0.479,0.992c0.167,0.331,0.331,0.645,0.496,0.958l3.19,5.951c0.116,0.198,0.215,0.38,0.313,0.512
			c0.101,0.132,0.199,0.231,0.299,0.314c0.099,0.066,0.197,0.132,0.297,0.148c0.116,0.033,0.248,0.05,0.38,0.05h0.464
			c0.083,0,0.148-0.017,0.215-0.033c0.082-0.017,0.148-0.05,0.198-0.099c0.065-0.05,0.115-0.116,0.148-0.199
			c0.033-0.066,0.05-0.165,0.05-0.264V16.887L272.96,16.887z"/>
		<path id="_81748152" fill="#383431" d="M283.531,17.664c-0.033-0.083-0.083-0.165-0.148-0.231
			c-0.066-0.083-0.199-0.165-0.381-0.281c-0.198-0.116-0.413-0.215-0.693-0.314c-0.265-0.083-0.579-0.166-0.926-0.249
			c-0.348-0.065-0.728-0.099-1.125-0.099c-0.776,0-1.487,0.133-2.115,0.397c-0.645,0.265-1.189,0.628-1.636,1.091
			c-0.463,0.479-0.811,1.058-1.059,1.735c-0.248,0.661-0.38,1.421-0.38,2.248c0,0.793,0.115,1.521,0.347,2.166
			s0.563,1.19,1.009,1.669c0.43,0.463,0.975,0.81,1.604,1.058c0.645,0.248,1.355,0.38,2.165,0.38c0.265,0,0.529-0.017,0.811-0.049
			c0.264-0.034,0.528-0.083,0.793-0.149s0.513-0.132,0.76-0.231c0.248-0.083,0.463-0.182,0.612-0.248
			c0.148-0.082,0.264-0.182,0.313-0.281c0.05-0.099,0.066-0.215,0.066-0.363v-3.983c0-0.099-0.017-0.182-0.033-0.248
			c-0.033-0.083-0.066-0.149-0.116-0.182c-0.05-0.049-0.099-0.083-0.165-0.099c-0.065-0.017-0.115-0.033-0.182-0.033h-3.306
			c-0.05,0-0.099,0.017-0.133,0.033c-0.032,0.016-0.05,0.05-0.082,0.099c-0.017,0.05-0.033,0.099-0.05,0.182
			c-0.016,0.066-0.017,0.165-0.017,0.264c0.001,0.182,0.017,0.331,0.066,0.43c0.05,0.083,0.115,0.132,0.215,0.132h2.413v3.059
			c-0.28,0.148-0.595,0.264-0.926,0.347c-0.33,0.083-0.661,0.116-0.976,0.116c-0.545,0-1.058-0.099-1.504-0.281
			c-0.463-0.181-0.859-0.446-1.173-0.81c-0.331-0.347-0.596-0.777-0.777-1.306c-0.182-0.512-0.281-1.107-0.281-1.768
			c0.001-0.595,0.083-1.158,0.248-1.669c0.183-0.513,0.413-0.958,0.744-1.323c0.314-0.38,0.694-0.661,1.157-0.876
			c0.462-0.215,0.976-0.314,1.554-0.314c0.479,0,0.893,0.049,1.256,0.149c0.348,0.115,0.645,0.215,0.909,0.347
			c0.248,0.132,0.446,0.231,0.595,0.347c0.148,0.099,0.265,0.149,0.331,0.149c0.032,0,0.066-0.017,0.099-0.033
			c0.034-0.017,0.066-0.05,0.083-0.116c0.017-0.049,0.033-0.116,0.05-0.182c0.016-0.082,0.016-0.182,0.016-0.281
			C283.563,17.896,283.547,17.764,283.531,17.664L283.531,17.664L283.531,17.664z"/>
	</g>
</g>
</svg>
