<?xml version="1.0" encoding="UTF-8"?><svg id="a" xmlns="http://www.w3.org/2000/svg" width="116.12" height="27.2" viewBox="0 0 116.12 27.2"><defs><style>.h{fill:#fff;}</style></defs><g id="b"><g id="c"><polygon id="d" class="h" points="43 0 36.38 0 36.38 5.38 43 5.38 43 0"/><path id="e" class="h" d="m47.92,11.47v5.21h26.99c-.42,2.74-1.96,4.11-4.61,4.11h-27.31V7.43h-6.61v13.37H13.61c-4.66,0-6.99-2.37-6.99-7.12V0H0v14.74c0,1.83.33,3.51.98,5.05.66,1.54,1.58,2.85,2.78,3.94,1.2,1.09,2.63,1.94,4.3,2.55,1.67.61,3.51.92,5.53.92h55.3c8.26,0,12.39-3.82,12.39-11.47v-5.17h-27.06c.35-2.77,1.91-4.15,4.68-4.15h22.38V0h-20.97c-8.26,0-12.39,3.82-12.39,11.47Z"/><path id="f" class="h" d="m89.17,10.56v-4.15h15.97c2.77,0,4.33,1.38,4.68,4.15h-20.66Zm26.95.91c0-7.65-4.13-11.47-12.39-11.47h-20.97v15.73c0,7.65,4.13,11.47,12.39,11.47h20.97v-6.4h-22.38c-2.65,0-4.19-1.37-4.61-4.11h26.99v-5.21h0Z"/><polygon id="g" class="h" points="25.23 0 18.61 0 18.61 17.45 25.23 17.45 25.23 0"/></g></g></svg>