<svg width="672" height="554.8522960561859" xmlns="http://www.w3.org/2000/svg" xmlns:xlink="http://www.w3.org/1999/xlink"><text transform="rotate(-90)" y="0" x="-242.42614802809297" dy="1em" style="text-anchor: middle;">Y Position (meters)</text><text y="534.8522960561859" x="301" dy="1em" style="text-anchor: middle;">X Position (meters)</text><image xlink:href="map.png" x="50" y="20" width="602" height="484.85229605618593"/><g fill="none" font-size="10" font-family="sans-serif" text-anchor="end" transform="translate(50, 0)"><g class="tick" opacity="1" transform="translate(0,505.3522960561859)"><line stroke="currentColor" x2="-6"/><text fill="currentColor" x="-9" dy="0.32em">0</text></g><g class="tick" opacity="1" transform="translate(0,440.30637493246894)"><line stroke="currentColor" x2="-6"/><text fill="currentColor" x="-9" dy="0.32em">5</text></g><g class="tick" opacity="1" transform="translate(0,375.260453808752)"><line stroke="currentColor" x2="-6"/><text fill="currentColor" x="-9" dy="0.32em">10</text></g><g class="tick" opacity="1" transform="translate(0,310.2145326850351)"><line stroke="currentColor" x2="-6"/><text fill="currentColor" x="-9" dy="0.32em">15</text></g><g class="tick" opacity="1" transform="translate(0,245.16861156131822)"><line stroke="currentColor" x2="-6"/><text fill="currentColor" x="-9" dy="0.32em">20</text></g><g class="tick" opacity="1" transform="translate(0,180.12269043760136)"><line stroke="currentColor" x2="-6"/><text fill="currentColor" x="-9" dy="0.32em">25</text></g><g class="tick" opacity="1" transform="translate(0,115.07676931388443)"><line stroke="currentColor" x2="-6"/><text fill="currentColor" x="-9" dy="0.32em">30</text></g><g class="tick" opacity="1" transform="translate(0,50.030848190167504)"><line stroke="currentColor" x2="-6"/><text fill="currentColor" x="-9" dy="0.32em">35</text></g></g><g fill="none" font-size="10" font-family="sans-serif" text-anchor="middle" transform="translate(0, 504.8522960561859)"><g class="tick" opacity="1" transform="translate(50.5,0)"><line stroke="currentColor" y2="6"/><text fill="currentColor" y="9" dy="0.71em">0</text></g><g class="tick" opacity="1" transform="translate(115.54592112371691,0)"><line stroke="currentColor" y2="6"/><text fill="currentColor" y="9" dy="0.71em">5</text></g><g class="tick" opacity="1" transform="translate(180.59184224743382,0)"><line stroke="currentColor" y2="6"/><text fill="currentColor" y="9" dy="0.71em">10</text></g><g class="tick" opacity="1" transform="translate(245.63776337115073,0)"><line stroke="currentColor" y2="6"/><text fill="currentColor" y="9" dy="0.71em">15</text></g><g class="tick" opacity="1" transform="translate(310.68368449486763,0)"><line stroke="currentColor" y2="6"/><text fill="currentColor" y="9" dy="0.71em">20</text></g><g class="tick" opacity="1" transform="translate(375.7296056185845,0)"><line stroke="currentColor" y2="6"/><text fill="currentColor" y="9" dy="0.71em">25</text></g><g class="tick" opacity="1" transform="translate(440.77552674230145,0)"><line stroke="currentColor" y2="6"/><text fill="currentColor" y="9" dy="0.71em">30</text></g><g class="tick" opacity="1" transform="translate(505.8214478660184,0)"><line stroke="currentColor" y2="6"/><text fill="currentColor" y="9" dy="0.71em">35</text></g><g class="tick" opacity="1" transform="translate(570.8673689897353,0)"><line stroke="currentColor" y2="6"/><text fill="currentColor" y="9" dy="0.71em">40</text></g><g class="tick" opacity="1" transform="translate(635.9132901134523,0)"><line stroke="currentColor" y2="6"/><text fill="currentColor" y="9" dy="0.71em">45</text></g></g><rect x="0" y="0" height="414.85229605618593" width="532" fill="url(#pattern)"/><circle cx="91.62938951917883" cy="415.08892490545657" r="11.057806591031875" fill="rgb(49, 232, 168)"/><circle cx="91.62938951917883" cy="109.3730956239871" r="11.057806591031875" fill="rgb(56, 36, 91)"/><circle cx="91.62938951917883" cy="76.85013506212863" r="11.057806591031875" fill="rgb(56, 36, 91)"/><circle cx="91.62938951917883" cy="54.73452188006484" r="11.057806591031875" fill="rgb(56, 36, 91)"/><circle cx="113.74500270124258" cy="415.08892490545657" r="11.057806591031875" fill="rgb(52, 235, 164)"/><circle cx="113.74500270124258" cy="109.3730956239871" r="11.057806591031875" fill="rgb(56, 36, 91)"/><circle cx="135.8606158833063" cy="415.08892490545657" r="11.057806591031875" fill="rgb(71, 246, 138)"/><circle cx="135.8606158833063" cy="109.3730956239871" r="11.057806591031875" fill="rgb(56, 36, 91)"/><circle cx="138.462452728255" cy="76.85013506212863" r="11.057806591031875" fill="rgb(56, 36, 91)"/><circle cx="138.462452728255" cy="54.73452188006484" r="11.057806591031875" fill="rgb(56, 36, 91)"/><circle cx="157.9762290653701" cy="415.08892490545657" r="11.057806591031875" fill="rgb(54, 237, 160)"/><circle cx="157.9762290653701" cy="109.3730956239871" r="11.057806591031875" fill="rgb(56, 36, 91)"/><circle cx="180.09184224743382" cy="415.08892490545657" r="11.057806591031875" fill="rgb(77, 248, 131)"/><circle cx="180.09184224743382" cy="109.3730956239871" r="11.057806591031875" fill="rgb(56, 36, 91)"/><circle cx="180.09184224743382" cy="63.84095083738525" r="11.057806591031875" fill="rgb(56, 36, 91)"/><circle cx="202.20745542949757" cy="415.08892490545657" r="11.057806591031875" fill="rgb(63, 242, 148)"/><circle cx="202.20745542949757" cy="262.881469475959" r="11.057806591031875" fill="rgb(56, 36, 91)"/><circle cx="202.20745542949757" cy="109.3730956239871" r="11.057806591031875" fill="rgb(56, 36, 91)"/><circle cx="202.20745542949757" cy="63.84095083738525" r="11.057806591031875" fill="rgb(56, 36, 91)"/><circle cx="224.32306861156135" cy="415.08892490545657" r="11.057806591031875" fill="rgb(43, 225, 181)"/><circle cx="224.32306861156135" cy="262.881469475959" r="11.057806591031875" fill="rgb(56, 36, 91)"/><circle cx="224.32306861156135" cy="109.3730956239871" r="11.057806591031875" fill="rgb(56, 36, 91)"/><circle cx="239.93408968125337" cy="76.85013506212863" r="11.057806591031875" fill="rgb(56, 36, 91)"/><circle cx="239.93408968125337" cy="54.73452188006484" r="11.057806591031875" fill="rgb(56, 36, 91)"/><circle cx="246.43868179362505" cy="415.08892490545657" r="11.057806591031875" fill="rgb(62, 242, 149)"/><circle cx="246.43868179362505" cy="262.881469475959" r="11.057806591031875" fill="rgb(56, 36, 91)"/><circle cx="246.43868179362505" cy="109.3730956239871" r="11.057806591031875" fill="rgb(56, 36, 91)"/><circle cx="262.0497028633171" cy="76.85013506212863" r="11.057806591031875" fill="rgb(56, 36, 91)"/><circle cx="262.0497028633171" cy="54.73452188006484" r="11.057806591031875" fill="rgb(56, 36, 91)"/><circle cx="265.9524581307402" cy="353.9457590491627" r="11.057806591031875" fill="rgb(68, 50, 142)"/><circle cx="265.9524581307402" cy="171.81717990275524" r="11.057806591031875" fill="rgb(56, 36, 91)"/><circle cx="268.55429497568883" cy="415.08892490545657" r="11.057806591031875" fill="rgb(70, 246, 138)"/><circle cx="268.55429497568883" cy="262.881469475959" r="11.057806591031875" fill="rgb(56, 36, 91)"/><circle cx="268.55429497568883" cy="109.3730956239871" r="11.057806591031875" fill="rgb(56, 36, 91)"/><circle cx="290.6699081577526" cy="415.08892490545657" r="11.057806591031875" fill="rgb(178, 243, 67)"/><circle cx="290.6699081577526" cy="109.3730956239871" r="11.057806591031875" fill="rgb(56, 36, 91)"/><circle cx="299.7763371150729" cy="481.43576445164774" r="11.057806591031875" fill="rgb(47, 229, 173)"/><circle cx="299.7763371150729" cy="459.320151269584" r="11.057806591031875" fill="rgb(68, 245, 141)"/><circle cx="299.7763371150729" cy="437.2045380875203" r="11.057806591031875" fill="rgb(133, 253, 89)"/><circle cx="299.7763371150729" cy="392.97331172339284" r="11.057806591031875" fill="rgb(89, 251, 120)"/><circle cx="299.7763371150729" cy="370.85769854132906" r="11.057806591031875" fill="rgb(74, 247, 135)"/><circle cx="299.7763371150729" cy="348.7420853592653" r="11.057806591031875" fill="rgb(40, 216, 193)"/><circle cx="299.7763371150729" cy="326.62647217720155" r="11.057806591031875" fill="rgb(37, 195, 219)"/><circle cx="299.7763371150729" cy="304.5108589951378" r="11.057806591031875" fill="rgb(47, 157, 245)"/><circle cx="299.7763371150729" cy="282.395245813074" r="11.057806591031875" fill="rgb(43, 168, 240)"/><circle cx="299.7763371150729" cy="262.881469475959" r="11.057806591031875" fill="rgb(38, 185, 228)"/><circle cx="299.7763371150729" cy="242.0667747163696" r="11.057806591031875" fill="rgb(47, 157, 245)"/><circle cx="299.7763371150729" cy="219.95116153430587" r="11.057806591031875" fill="rgb(56, 36, 91)"/><circle cx="299.7763371150729" cy="197.83554835224206" r="11.057806591031875" fill="rgb(56, 36, 91)"/><circle cx="299.7763371150729" cy="175.71993517017836" r="11.057806591031875" fill="rgb(56, 36, 91)"/><circle cx="299.7763371150729" cy="153.60432198811455" r="11.057806591031875" fill="rgb(56, 36, 91)"/><circle cx="299.7763371150729" cy="131.48870880605082" r="11.057806591031875" fill="rgb(56, 36, 91)"/><circle cx="306.2809292274446" cy="76.85013506212863" r="11.057806591031875" fill="rgb(56, 36, 91)"/><circle cx="306.2809292274446" cy="54.73452188006484" r="11.057806591031875" fill="rgb(56, 36, 91)"/><circle cx="312.78552133981634" cy="415.08892490545657" r="11.057806591031875" fill="rgb(157, 249, 76)"/><circle cx="312.78552133981634" cy="109.3730956239871" r="11.057806591031875" fill="rgb(56, 36, 91)"/><circle cx="321.89195029713665" cy="262.881469475959" r="11.057806591031875" fill="rgb(56, 36, 91)"/><circle cx="321.89195029713665" cy="212.14565099945975" r="11.057806591031875" fill="rgb(56, 36, 91)"/><circle cx="321.89195029713665" cy="190.03003781739605" r="11.057806591031875" fill="rgb(56, 36, 91)"/><circle cx="321.89195029713665" cy="167.9144246353323" r="11.057806591031875" fill="rgb(56, 36, 91)"/><circle cx="328.3965424095084" cy="76.85013506212863" r="11.057806591031875" fill="rgb(56, 36, 91)"/><circle cx="328.3965424095084" cy="54.73452188006484" r="11.057806591031875" fill="rgb(56, 36, 91)"/><circle cx="334.90113452188007" cy="415.08892490545657" r="11.057806591031875" fill="rgb(170, 246, 70)"/><circle cx="334.90113452188007" cy="109.3730956239871" r="11.057806591031875" fill="rgb(56, 36, 91)"/><circle cx="344.0075634792004" cy="262.881469475959" r="11.057806591031875" fill="rgb(56, 36, 91)"/><circle cx="344.0075634792004" cy="212.14565099945975" r="11.057806591031875" fill="rgb(56, 36, 91)"/><circle cx="344.0075634792004" cy="190.03003781739605" r="11.057806591031875" fill="rgb(56, 36, 91)"/><circle cx="344.0075634792004" cy="167.9144246353323" r="11.057806591031875" fill="rgb(56, 36, 91)"/><circle cx="350.5121555915722" cy="76.85013506212863" r="11.057806591031875" fill="rgb(56, 36, 91)"/><circle cx="350.5121555915722" cy="54.73452188006484" r="11.057806591031875" fill="rgb(56, 36, 91)"/><circle cx="357.01674770394385" cy="415.08892490545657" r="11.057806591031875" fill="rgb(104, 253, 108)"/><circle cx="357.01674770394385" cy="109.3730956239871" r="11.057806591031875" fill="rgb(56, 36, 91)"/><circle cx="366.12317666126427" cy="212.14565099945975" r="11.057806591031875" fill="rgb(56, 36, 91)"/><circle cx="366.12317666126427" cy="190.03003781739605" r="11.057806591031875" fill="rgb(56, 36, 91)"/><circle cx="366.12317666126427" cy="167.9144246353323" r="11.057806591031875" fill="rgb(56, 36, 91)"/><circle cx="379.1323608860076" cy="415.08892490545657" r="11.057806591031875" fill="rgb(181, 242, 66)"/><circle cx="379.1323608860076" cy="109.3730956239871" r="11.057806591031875" fill="rgb(56, 36, 91)"/><circle cx="396.044300378174" cy="136.69238249594815" r="11.057806591031875" fill="rgb(56, 36, 91)"/><circle cx="401.2479740680713" cy="415.08892490545657" r="11.057806591031875" fill="rgb(235, 210, 46)"/><circle cx="401.2479740680713" cy="109.3730956239871" r="11.057806591031875" fill="rgb(56, 36, 91)"/><circle cx="423.3635872501351" cy="415.08892490545657" r="11.057806591031875" fill="rgb(253, 187, 39)"/><circle cx="423.3635872501351" cy="109.3730956239871" r="11.057806591031875" fill="rgb(56, 36, 91)"/><circle cx="429.86817936250674" cy="174.419016747704" r="11.057806591031875" fill="rgb(56, 36, 91)"/><circle cx="429.86817936250674" cy="152.30340356564022" r="11.057806591031875" fill="rgb(56, 36, 91)"/><circle cx="429.86817936250674" cy="130.1877903835765" r="11.057806591031875" fill="rgb(56, 36, 91)"/><circle cx="445.4792004321988" cy="415.08892490545657" r="11.057806591031875" fill="rgb(255, 154, 33)"/><circle cx="445.4792004321988" cy="109.3730956239871" r="11.057806591031875" fill="rgb(56, 36, 91)"/><circle cx="451.9837925445705" cy="174.419016747704" r="11.057806591031875" fill="rgb(56, 36, 91)"/><circle cx="451.9837925445705" cy="152.30340356564022" r="11.057806591031875" fill="rgb(56, 36, 91)"/><circle cx="451.9837925445705" cy="130.1877903835765" r="11.057806591031875" fill="rgb(56, 36, 91)"/><circle cx="461.09022150189094" cy="63.84095083738525" r="11.057806591031875" fill="rgb(56, 36, 91)"/><circle cx="467.59481361426265" cy="415.08892490545657" r="11.057806591031875" fill="rgb(255, 136, 30)"/><circle cx="467.59481361426265" cy="109.3730956239871" r="11.057806591031875" fill="rgb(56, 36, 91)"/><circle cx="474.09940572663425" cy="174.419016747704" r="11.057806591031875" fill="rgb(56, 36, 91)"/><circle cx="474.09940572663425" cy="152.30340356564022" r="11.057806591031875" fill="rgb(56, 36, 91)"/><circle cx="474.09940572663425" cy="130.1877903835765" r="11.057806591031875" fill="rgb(56, 36, 91)"/><circle cx="483.2058346839546" cy="63.84095083738525" r="11.057806591031875" fill="rgb(56, 36, 91)"/><circle cx="489.7104267963263" cy="415.08892490545657" r="11.057806591031875" fill="rgb(197, 42, 11)"/><circle cx="489.7104267963263" cy="109.3730956239871" r="11.057806591031875" fill="rgb(56, 36, 91)"/><circle cx="496.2150189086979" cy="174.419016747704" r="11.057806591031875" fill="rgb(56, 36, 91)"/><circle cx="496.2150189086979" cy="152.30340356564022" r="11.057806591031875" fill="rgb(56, 36, 91)"/><circle cx="496.2150189086979" cy="130.1877903835765" r="11.057806591031875" fill="rgb(56, 36, 91)"/><circle cx="511.82603997839004" cy="415.08892490545657" r="11.057806591031875" fill="rgb(252, 106, 26)"/><circle cx="511.82603997839004" cy="109.3730956239871" r="11.057806591031875" fill="rgb(56, 36, 91)"/><circle cx="533.9416531604538" cy="415.08892490545657" r="11.057806591031875" fill="rgb(253, 187, 40)"/><circle cx="533.9416531604538" cy="109.3730956239871" r="11.057806591031875" fill="rgb(56, 36, 91)"/><circle cx="556.0572663425176" cy="415.08892490545657" r="11.057806591031875" fill="rgb(243, 202, 43)"/><circle cx="556.0572663425176" cy="109.3730956239871" r="11.057806591031875" fill="rgb(56, 36, 91)"/><circle cx="578.1728795245813" cy="415.08892490545657" r="11.057806591031875" fill="rgb(222, 221, 51)"/><circle cx="578.1728795245813" cy="109.3730956239871" r="11.057806591031875" fill="rgb(56, 36, 91)"/></svg>